<svg xmlns="http://www.w3.org/2000/svg" viewBox="0 0 322.31 322.37"><defs><style>.cls-1{fill:#a7a9ac;}</style></defs><g id="Layer_2" data-name="Layer 2"><g id="Layer_1-2" data-name="Layer 1"><path class="cls-1" d="M253.23,11.56A11.54,11.54,0,0,0,246.79,1.2a11.22,11.22,0,0,0-12.21,1.39l-102,81.27L253.23,204.5Z"/><path class="cls-1" d="M318.94,302.71,19.64,3.41A11.51,11.51,0,0,0,3.37,19.69L75.8,92.14H69.05a23.39,23.39,0,0,0-23,23v92.09a23.09,23.09,0,0,0,23,23h53.41l112.12,89.56a11.78,11.78,0,0,0,7.14,2.53,13.55,13.55,0,0,0,5.07-1.15,11.53,11.53,0,0,0,6.44-10.36V269.58L302.64,319a11.52,11.52,0,1,0,16.3-16.28Z"/></g></g></svg>