<svg xmlns="http://www.w3.org/2000/svg" viewBox="0 0 481.7 481.7"><defs><style>.cls-1{fill:#f1f2f2;}.cls-2{fill:#414042;}</style></defs><g id="Layer_2" data-name="Layer 2"><g id="Layer_1-2" data-name="Layer 1"><circle class="cls-1" cx="240.85" cy="240.85" r="240.85"/><path class="cls-2" d="M240.85,238.54c23.43,0,42.42-23.07,42.42-51.53s-6.23-51.53-42.42-51.53S198.42,158.55,198.42,187,217.42,238.54,240.85,238.54Z"/><path class="cls-2" d="M320.89,315.14c-.79-49.57-7.26-63.7-56.81-72.64,0,0-7,8.88-23.23,8.88s-23.23-8.88-23.23-8.88c-49,8.84-55.88,22.76-56.78,71-.08,4-.11,4.15-.12,3.69v5.21s11.8,23.78,80.13,23.78S321,322.43,321,322.43v-3.85A33.75,33.75,0,0,1,320.89,315.14Z"/><path class="cls-2" d="M299.73,229.34c19,0,34.45-18.73,34.45-41.85s-5.06-41.85-34.45-41.85a49.26,49.26,0,0,0-12.86,1.52c6.79,12.52,7.72,27.72,7.72,39.85A70.66,70.66,0,0,1,284,224.73,29.58,29.58,0,0,0,299.73,229.34Z"/><path class="cls-2" d="M364.73,291.56c-.64-40.27-5.89-51.74-46.14-59,0,0-5.66,7.22-18.87,7.22-.54,0-1.07,0-1.59,0,8.39,3.78,16,9.05,21.64,16.76,9.72,13.32,12,31.22,12.41,57.51,27.07-5.35,32.62-16.52,32.62-16.52,0-1.46,0-2.46,0-3.14A17.58,17.58,0,0,1,364.73,291.56Z"/><path class="cls-2" d="M182,229.34a29.52,29.52,0,0,0,15.72-4.61A70.66,70.66,0,0,1,187.11,187c0-12.13.93-27.33,7.72-39.85A49.26,49.26,0,0,0,182,145.64c-29.39,0-34.46,18.74-34.46,41.85S162.94,229.34,182,229.34Z"/><path class="cls-2" d="M183.57,239.73c-.52,0-1,0-1.6,0-13.2,0-18.87-7.22-18.87-7.22-40.24,7.27-45.5,18.74-46.14,59a26.12,26.12,0,0,1-.07,2.78v3.14s5.55,11.17,32.62,16.52c.47-26.29,2.7-44.19,12.42-57.51C167.55,248.78,175.18,243.51,183.57,239.73Z"/></g></g></svg>