<svg xmlns="http://www.w3.org/2000/svg" viewBox="0 0 481.7 481.7"><defs><style>.cls-1{fill:#f1f2f2;}.cls-2{fill:#01245a;}</style></defs><g id="Layer_2" data-name="Layer 2"><g id="Layer_1-2" data-name="Layer 1"><circle class="cls-1" cx="240.85" cy="240.85" r="240.85"/><path class="cls-2" d="M330,126.28a31.86,31.86,0,0,0-45,0l-11.27,11.33L153.73,257.49l-.26.26c-.06.06-.06.13-.13.13-.12.19-.31.38-.44.57s-.07.06-.07.13l-.31.51c-.07.06-.07.12-.13.19s-.13.32-.19.51-.07.06-.07.12l-26.61,80a6.27,6.27,0,0,0,1.53,6.49,6.44,6.44,0,0,0,4.52,1.85,7.43,7.43,0,0,0,2-.32l80-26.68c.06,0,.06,0,.13-.06a2.41,2.41,0,0,0,.57-.25.24.24,0,0,0,.13-.07c.19-.12.44-.25.63-.38s.39-.32.58-.44.12-.07.12-.13.2-.13.26-.26L347.2,188.48a31.86,31.86,0,0,0,0-45Zm-118.42,180L167.22,262l110.91-110.9,44.3,44.31ZM161,273.79l38.71,38.71-58.12,19.35Zm177.24-94.22-6.74,6.81-44.32-44.31,6.82-6.81a19.09,19.09,0,0,1,27,0l17.32,17.32A19.15,19.15,0,0,1,338.22,179.57Z"/></g></g></svg>