<svg xmlns="http://www.w3.org/2000/svg" viewBox="0 0 474.06 481.7"><defs><style>.cls-1{fill:#f1f2f2;}.cls-2{fill:#01245a;}</style></defs><g id="Layer_2" data-name="Layer 2"><g id="Layer_1-2" data-name="Layer 1"><ellipse class="cls-1" cx="237.03" cy="240.85" rx="237.03" ry="240.85"/><path class="cls-2" d="M255.53,156.74H127c-17,0-30.83,14.09-30.83,31.32V293.63C96.14,310.86,110,325,127,325H255.53c17,0,30.83-14.1,30.83-31.33V188.06A31,31,0,0,0,255.53,156.74Z"/><path class="cls-2" d="M355.11,174a15.47,15.47,0,0,0-5.24,2.19l-48.1,28.19V277l48.41,28.19c8.94,5.33,20,2.2,25.28-6.89a19.38,19.38,0,0,0,2.46-9.4V192.14A18.63,18.63,0,0,0,355.11,174Z"/></g></g></svg>