<svg xmlns="http://www.w3.org/2000/svg" viewBox="0 0 309.74 258.58"><defs><style>.cls-1{fill:#01245a;}</style></defs><g id="Layer_2" data-name="Layer 2"><g id="Layer_1-2" data-name="Layer 1"><path class="cls-1" d="M217.14,22.16h34.59a8.66,8.66,0,0,1,8.57,8.71V66a10.91,10.91,0,1,0,21.81,0V30.87c0-17-13.63-30.87-30.38-30.87H217.14a11,11,0,0,0-10.91,11.08A11,11,0,0,0,217.14,22.16Z"/><path class="cls-1" d="M27.63,30.87V66a10.91,10.91,0,1,0,21.81,0V30.87A8.66,8.66,0,0,1,58,22.16H92.6a11,11,0,0,0,10.91-11.08A11,11,0,0,0,92.6,0H58C41.26,0,27.63,13.85,27.63,30.87Z"/><path class="cls-1" d="M92.6,236.41H58a8.64,8.64,0,0,1-8.57-8.7V192.56a10.91,10.91,0,1,0-21.81,0v35.15c0,17,13.63,30.87,30.38,30.87H92.6a11.09,11.09,0,0,0,0-22.17Z"/><path class="cls-1" d="M282.11,227.71V192.56a10.91,10.91,0,1,0-21.81,0v35.15a8.65,8.65,0,0,1-8.57,8.7H217.14a11.09,11.09,0,0,0,0,22.17h34.59C268.48,258.58,282.11,244.73,282.11,227.71Z"/><path class="cls-1" d="M0,130c0,6.12,4.08,11.08,9.11,11.08H300.63c5,0,9.11-5,9.11-11.08S305.66,119,300.63,119H9.11C4.08,119,0,123.91,0,130Z"/></g></g></svg>