<svg xmlns="http://www.w3.org/2000/svg" viewBox="0 0 475.43 475.43"><defs><style>.cls-1{fill:#01245a;}.cls-2{fill:#fff;}</style></defs><g id="Layer_2" data-name="Layer 2"><g id="Layer_1-2" data-name="Layer 1"><circle class="cls-1" cx="237.71" cy="237.71" r="237.71"/><path class="cls-2" d="M284.55,243.93a38.71,38.71,0,1,1-38.71-38.71A38.75,38.75,0,0,1,284.55,243.93Zm81.31-55v110a26.54,26.54,0,0,1-26.54,26.54H152.37a26.55,26.55,0,0,1-26.55-26.54V189a26.55,26.55,0,0,1,26.55-26.54H185v-9.19A23.22,23.22,0,0,1,208.24,130h75.21a23.22,23.22,0,0,1,23.22,23.22v9.18h32.65A26.55,26.55,0,0,1,365.86,189Zm-61.4,55a58.62,58.62,0,1,0-58.62,58.62A58.69,58.69,0,0,0,304.46,243.93Z"/></g></g></svg>