<svg xmlns="http://www.w3.org/2000/svg" viewBox="0 0 387.13 387.13"><defs><style>.cls-1{fill:#01245a;}.cls-2{fill:#fff;}</style></defs><g id="Layer_2" data-name="Layer 2"><g id="Layer_1-2" data-name="Layer 1"><rect class="cls-1" width="387.13" height="387.13" rx="39.29"/><path class="cls-2" d="M193.57,207.36c23.11,0,41.85-22.76,41.85-50.84s-6.15-50.84-41.85-50.84-41.86,22.76-41.86,50.84S170.45,207.36,193.57,207.36Z"/><path class="cls-2" d="M272.53,282.94c-.77-48.92-7.16-62.85-56-71.68,0,0-6.88,8.77-22.92,8.77s-22.92-8.77-22.92-8.77c-48.35,8.73-55.13,22.46-56,70.09-.07,3.89-.11,4.09-.12,3.64,0,.84,0,2.41,0,5.14,0,0,11.63,23.46,79.05,23.46s79.05-23.46,79.05-23.46v-3.8A33.19,33.19,0,0,1,272.53,282.94Z"/></g></g></svg>