<svg xmlns="http://www.w3.org/2000/svg" viewBox="0 0 186.11 186.5"><defs><style>.cls-1{fill:#01245a;}</style></defs><g id="Layer_2" data-name="Layer 2"><g id="Layer_1-2" data-name="Layer 1"><path class="cls-1" d="M181.23,136.87l-26-26c-9.29-9.3-25.1-5.58-28.81,6.5-2.79,8.37-12.09,13-20.45,11.16C87.35,123.86,62.25,99.69,57.6,80.17c-2.79-8.36,2.79-17.66,11.16-20.45C80.84,56,84.56,40.2,75.26,30.91l-26-26c-7.44-6.51-18.59-6.51-25.1,0L6.48,22.54C-11.18,41.13,8.34,90.4,52,134.08s93,64.14,111.55,45.55L181.23,162C187.73,154.53,187.73,143.38,181.23,136.87Z"/></g></g></svg>