<svg xmlns="http://www.w3.org/2000/svg" viewBox="0 0 257.08 266.02"><defs><style>.cls-1{fill:#01245a;}</style></defs><g id="Layer_2" data-name="Layer 2"><g id="Layer_1-2" data-name="Layer 1"><path class="cls-1" d="M129.14,0h-.42C57.73,0,0,58.66,0,130.79a131.19,131.19,0,0,0,28,81L9.26,256.09a7.14,7.14,0,0,0,3.65,9.34,7.06,7.06,0,0,0,4,.5l68.67-12.26a122,122,0,0,0,42.79,7.55c71,0,128.71-58.66,128.71-130.79C257.22,58.52,199.92.07,129.14,0Zm-44,104.49H123a7.13,7.13,0,0,1,0,14.25H85.09a7.13,7.13,0,0,1,0-14.25Zm87,49.89h-87a7.13,7.13,0,0,1,0-14.25h87a7.13,7.13,0,0,1,0,14.25Z"/></g></g></svg>