<svg xmlns="http://www.w3.org/2000/svg" viewBox="0 0 474.06 481.7"><defs><style>.cls-1{fill:#f1f2f2;}.cls-2{fill:#01245a;}</style></defs><g id="Layer_2" data-name="Layer 2"><g id="Layer_1-2" data-name="Layer 1"><ellipse class="cls-1" cx="237.03" cy="240.85" rx="237.03" ry="240.85"/><path class="cls-2" d="M332.33,288.76,304.2,260.17c-10-10.21-27.12-6.12-31.14,7.15-3,9.19-13.06,14.29-22.1,12.25-20.1-5.11-47.22-31.65-52.25-53.09-3-9.18,3-19.39,12.06-22.45,13.06-4.09,17.08-21.44,7-31.65L189.67,143.8c-8-7.15-20.09-7.15-27.12,0l-19.09,19.39c-19.09,20.42,2,74.52,49.23,122.5s100.46,70.44,120.56,50l19.08-19.39C339.37,308.15,339.37,295.9,332.33,288.76Z"/></g></g></svg>