<svg xmlns="http://www.w3.org/2000/svg" viewBox="0 0 240.19 240.19"><defs><style>.cls-1{fill:#01245a;}</style></defs><g id="Layer_2" data-name="Layer 2"><g id="Layer_1-2" data-name="Layer 1"><path class="cls-1" d="M120.09,240.19A120.1,120.1,0,1,0,0,120.09H0A120.24,120.24,0,0,0,120.09,240.19ZM23.65,153.88a142.43,142.43,0,0,0,45.89,16.76,142.4,142.4,0,0,0,16.79,45.89A102.64,102.64,0,0,1,23.65,153.88ZM66.52,88.64a279.21,279.21,0,0,0,0,62.91c-29.68-7.24-48.72-19.78-48.72-31.46S36.84,95.87,66.52,88.64ZM120.09,17.8c11.7,0,24.22,19,31.46,48.72a280.38,280.38,0,0,0-62.91,0C95.88,36.84,108.42,17.8,120.09,17.8Zm0,64.75a242.91,242.91,0,0,1,35,2.54,244.66,244.66,0,0,1,0,70,244.66,244.66,0,0,1-70.05,0,244.66,244.66,0,0,1,0-70A242.87,242.87,0,0,1,120.09,82.55Zm102.3,37.54c0,11.7-19,24.22-48.72,31.46a271.18,271.18,0,0,0,1.77-31.46,273.11,273.11,0,0,0-1.77-31.45C203.35,95.87,222.39,108.42,222.39,120.09Zm-102.3,102.3c-11.69,0-24.21-19-31.45-48.72a280.38,280.38,0,0,0,62.91,0C144.31,203.34,131.79,222.39,120.09,222.39Zm33.79-5.85a142.4,142.4,0,0,0,16.79-45.89,142.9,142.9,0,0,0,45.89-16.76A102.66,102.66,0,0,1,153.88,216.54ZM216.54,86.3a142.7,142.7,0,0,0-45.89-16.78,142.4,142.4,0,0,0-16.79-45.89A102.64,102.64,0,0,1,216.54,86.3ZM86.31,23.66A142.35,142.35,0,0,0,69.52,69.54,142.64,142.64,0,0,0,23.63,86.33,102.64,102.64,0,0,1,86.31,23.66Z"/></g></g></svg>