<svg xmlns="http://www.w3.org/2000/svg" viewBox="0 0 266.77 258.58"><defs><style>.cls-1{fill:#a7a9ac;}</style></defs><g id="Layer_2" data-name="Layer 2"><g id="Layer_1-2" data-name="Layer 1"><path class="cls-1" d="M266.39,98.19a7.86,7.86,0,0,0-6.31-5.41l-82.7-12.21-37-76.14a7.75,7.75,0,0,0-14,0l-37,76.14L6.69,92.78A7.86,7.86,0,0,0,.38,98.19a8,8,0,0,0,2,8.14L62.2,165.6,48.08,249.29a8,8,0,0,0,3.11,7.77,7.68,7.68,0,0,0,8.23.6l74-39.51,74,39.51a7.7,7.7,0,0,0,8.23-.6,8,8,0,0,0,3.11-7.77L204.57,165.6l59.84-59.27A8,8,0,0,0,266.39,98.19Z"/></g></g></svg>