<svg xmlns="http://www.w3.org/2000/svg" viewBox="0 0 387.13 387.13"><defs><style>.cls-1{fill:#01245a;}.cls-2{fill:#fff;}</style></defs><g id="Layer_2" data-name="Layer 2"><g id="Layer_1-2" data-name="Layer 1"><rect class="cls-1" width="387.13" height="387.13" rx="39.29"/><path class="cls-2" d="M296.12,233.47l-29-29c-10.36-10.36-28-6.22-32.11,7.25-3.1,9.32-13.46,14.5-22.78,12.43C191.51,219,163.55,192,158.37,170.29c-3.11-9.32,3.11-19.68,12.43-22.79,13.46-4.14,17.6-21.75,7.25-32.1l-29-29c-8.29-7.25-20.72-7.25-28,0L101.4,106.07c-19.68,20.72,2.07,75.61,50.75,124.29s103.58,71.47,124.29,50.75l19.68-19.68C303.37,253.15,303.37,240.72,296.12,233.47Z"/></g></g></svg>